<svg width="259" height="133" viewBox="0 0 259 133" fill="none" xmlns="http://www.w3.org/2000/svg">
<g filter="url(#filter0_d)">
<path d="M197.636 28.3267C140.905 24.4351 105.022 19.838 40.9498 28.3168C14.3124 36.7086 9.23636 45.5787 7.81523 63.9062C18.4832 86.3453 29.4791 90.9312 54.9382 89.7935C58.2983 86.6655 165.483 91.7576 203.579 88.7808C241.675 85.8041 254.366 32.2183 197.636 28.3267Z" fill="#FF9F3D"/>
</g>
<path d="M85.312 56.688C84.384 56.704 83.544 56.856 82.792 57.144C82.04 57.432 81.496 57.864 81.16 58.44V66H77.32V53.4H80.848V55.944C81.28 55.096 81.832 54.432 82.504 53.952C83.192 53.472 83.92 53.224 84.688 53.208C84.864 53.208 84.992 53.208 85.072 53.208C85.152 53.208 85.232 53.216 85.312 53.232V56.688ZM90.3413 66.24C89.7173 66.24 89.1333 66.144 88.5893 65.952C88.0613 65.744 87.6053 65.464 87.2213 65.112C86.8373 64.744 86.5333 64.32 86.3093 63.84C86.0853 63.344 85.9733 62.808 85.9733 62.232C85.9733 61.608 86.1013 61.04 86.3573 60.528C86.6293 60.016 87.0053 59.576 87.4853 59.208C87.9653 58.84 88.5333 58.552 89.1893 58.344C89.8453 58.136 90.5733 58.032 91.3733 58.032C91.9013 58.032 92.4133 58.08 92.9093 58.176C93.4053 58.256 93.8373 58.384 94.2053 58.56V57.984C94.2053 56.528 93.3653 55.8 91.6853 55.8C90.9973 55.8 90.3413 55.92 89.7173 56.16C89.0933 56.384 88.4373 56.728 87.7493 57.192L86.6213 54.792C87.4533 54.248 88.3173 53.84 89.2133 53.568C90.1093 53.296 91.0613 53.16 92.0693 53.16C93.9733 53.16 95.4453 53.608 96.4853 54.504C97.5253 55.4 98.0453 56.712 98.0453 58.44V61.68C98.0453 62.064 98.1013 62.336 98.2133 62.496C98.3413 62.64 98.5573 62.728 98.8613 62.76V66C98.5253 66.08 98.2213 66.128 97.9493 66.144C97.6773 66.176 97.4293 66.192 97.2053 66.192C96.4853 66.192 95.9413 66.056 95.5733 65.784C95.2053 65.496 94.9733 65.096 94.8773 64.584L94.8053 64.008C94.2453 64.728 93.5733 65.28 92.7893 65.664C92.0213 66.048 91.2053 66.24 90.3413 66.24ZM91.4693 63.48C91.8853 63.48 92.2853 63.408 92.6693 63.264C93.0693 63.12 93.3973 62.928 93.6533 62.688C94.0213 62.4 94.2053 62.096 94.2053 61.776V60.576C93.8693 60.448 93.5013 60.352 93.1013 60.288C92.7173 60.208 92.3573 60.168 92.0213 60.168C91.3173 60.168 90.7333 60.328 90.2693 60.648C89.8213 60.968 89.5973 61.384 89.5973 61.896C89.5973 62.36 89.7733 62.744 90.1253 63.048C90.4773 63.336 90.9253 63.48 91.4693 63.48ZM112.972 66H109.132V58.92C109.132 58.088 108.972 57.488 108.652 57.12C108.348 56.736 107.94 56.544 107.428 56.544C107.156 56.544 106.884 56.6 106.612 56.712C106.34 56.824 106.076 56.984 105.82 57.192C105.564 57.384 105.332 57.616 105.124 57.888C104.932 58.16 104.78 58.456 104.668 58.776V66H100.828V53.4H104.284V55.512C104.748 54.76 105.404 54.184 106.252 53.784C107.1 53.368 108.076 53.16 109.18 53.16C109.996 53.16 110.652 53.312 111.148 53.616C111.644 53.904 112.028 54.288 112.3 54.768C112.572 55.232 112.748 55.744 112.828 56.304C112.924 56.864 112.972 57.408 112.972 57.936V66ZM120.755 66.24C119.891 66.24 119.091 66.08 118.355 65.76C117.635 65.424 117.011 64.96 116.483 64.368C115.955 63.776 115.539 63.088 115.235 62.304C114.947 61.504 114.803 60.632 114.803 59.688C114.803 58.776 114.939 57.92 115.211 57.12C115.483 56.32 115.867 55.632 116.363 55.056C116.859 54.464 117.443 54 118.115 53.664C118.803 53.328 119.555 53.16 120.371 53.16C121.251 53.16 122.043 53.368 122.747 53.784C123.467 54.2 124.019 54.76 124.403 55.464V48.48H128.243V61.68C128.243 62.064 128.299 62.336 128.411 62.496C128.539 62.64 128.755 62.728 129.059 62.76V66C128.707 66.08 128.403 66.128 128.147 66.144C127.891 66.176 127.651 66.192 127.427 66.192C126.755 66.192 126.211 66.056 125.795 65.784C125.379 65.496 125.139 65.088 125.075 64.56L125.003 63.912C124.555 64.696 123.947 65.28 123.179 65.664C122.427 66.048 121.619 66.24 120.755 66.24ZM121.787 63C122.315 63 122.819 62.848 123.299 62.544C123.795 62.224 124.171 61.792 124.427 61.248V58.608C124.187 57.968 123.795 57.448 123.251 57.048C122.723 56.632 122.171 56.424 121.595 56.424C121.179 56.424 120.795 56.52 120.443 56.712C120.107 56.888 119.811 57.128 119.555 57.432C119.299 57.736 119.099 58.088 118.955 58.488C118.827 58.888 118.763 59.312 118.763 59.76C118.763 60.224 118.835 60.656 118.979 61.056C119.139 61.456 119.347 61.8 119.603 62.088C119.875 62.376 120.195 62.6 120.563 62.76C120.947 62.92 121.355 63 121.787 63ZM137.226 66.24C136.154 66.24 135.194 66.064 134.346 65.712C133.514 65.36 132.81 64.888 132.234 64.296C131.658 63.688 131.218 62.992 130.914 62.208C130.626 61.408 130.482 60.576 130.482 59.712C130.482 58.848 130.626 58.024 130.914 57.24C131.218 56.44 131.658 55.744 132.234 55.152C132.81 54.544 133.514 54.064 134.346 53.712C135.194 53.344 136.154 53.16 137.226 53.16C138.298 53.16 139.25 53.344 140.082 53.712C140.914 54.064 141.618 54.544 142.194 55.152C142.77 55.744 143.21 56.44 143.514 57.24C143.818 58.024 143.97 58.848 143.97 59.712C143.97 60.576 143.818 61.408 143.514 62.208C143.226 62.992 142.794 63.688 142.218 64.296C141.642 64.888 140.93 65.36 140.082 65.712C139.25 66.064 138.298 66.24 137.226 66.24ZM134.418 59.712C134.418 60.704 134.682 61.504 135.21 62.112C135.738 62.704 136.41 63 137.226 63C137.626 63 137.994 62.92 138.33 62.76C138.666 62.6 138.954 62.376 139.194 62.088C139.45 61.8 139.65 61.456 139.794 61.056C139.938 60.64 140.01 60.192 140.01 59.712C140.01 58.72 139.746 57.928 139.218 57.336C138.69 56.728 138.026 56.424 137.226 56.424C136.826 56.424 136.45 56.504 136.098 56.664C135.762 56.824 135.466 57.048 135.21 57.336C134.97 57.624 134.778 57.976 134.634 58.392C134.49 58.792 134.418 59.232 134.418 59.712ZM165.795 66H161.955V58.92C161.955 58.088 161.803 57.488 161.499 57.12C161.195 56.736 160.803 56.544 160.323 56.544C160.067 56.544 159.803 56.6 159.531 56.712C159.275 56.824 159.035 56.984 158.811 57.192C158.587 57.384 158.379 57.616 158.187 57.888C158.011 58.16 157.867 58.456 157.755 58.776V66H153.915V58.92C153.915 58.088 153.763 57.488 153.459 57.12C153.155 56.736 152.763 56.544 152.283 56.544C151.771 56.544 151.267 56.752 150.771 57.168C150.291 57.568 149.939 58.104 149.715 58.776V66H145.875V53.4H149.331V55.512C149.795 54.744 150.419 54.16 151.203 53.76C152.003 53.36 152.931 53.16 153.987 53.16C154.515 53.16 154.971 53.224 155.355 53.352C155.755 53.48 156.099 53.656 156.387 53.88C156.675 54.104 156.907 54.368 157.083 54.672C157.259 54.96 157.387 55.272 157.467 55.608C157.947 54.824 158.579 54.224 159.363 53.808C160.147 53.376 161.043 53.16 162.051 53.16C162.851 53.16 163.491 53.312 163.971 53.616C164.467 53.904 164.851 54.288 165.123 54.768C165.395 55.232 165.571 55.744 165.651 56.304C165.747 56.864 165.795 57.408 165.795 57.936V66Z" fill="#4F361C"/>
<defs>
<filter id="filter0_d" x="0" y="0" width="258.454" height="132.645" filterUnits="userSpaceOnUse" color-interpolation-filters="sRGB">
<feFlood flood-opacity="0" result="BackgroundImageFix"/>
<feColorMatrix in="SourceAlpha" type="matrix" values="0 0 0 0 0 0 0 0 0 0 0 0 0 0 0 0 0 0 127 0"/>
<feOffset dx="7" dy="7"/>
<feGaussianBlur stdDeviation="6"/>
<feColorMatrix type="matrix" values="0 0 0 0 0 0 0 0 0 0 0 0 0 0 0 0 0 0 0.25 0"/>
<feBlend mode="normal" in2="BackgroundImageFix" result="effect1_dropShadow"/>
<feBlend mode="normal" in="SourceGraphic" in2="effect1_dropShadow" result="shape"/>
</filter>
</defs>
</svg>
