<svg width="243" height="117" viewBox="0 0 243 117" fill="none" xmlns="http://www.w3.org/2000/svg">
<g filter="url(#filter0_d)">
<path d="M192.636 23.3267C135.905 19.4351 100.022 14.838 35.9498 23.3168C9.31242 31.7086 4.23636 40.5787 2.81523 58.9062C13.4832 81.3453 24.4791 85.9312 49.9382 84.7935C53.2983 81.6655 160.483 86.7576 198.579 83.7808C236.675 80.8041 249.366 27.2183 192.636 23.3267Z" fill="#C06F1C"/>
</g>
<path d="M80.312 51.688C79.384 51.704 78.544 51.856 77.792 52.144C77.04 52.432 76.496 52.864 76.16 53.44V61H72.32V48.4H75.848V50.944C76.28 50.096 76.832 49.432 77.504 48.952C78.192 48.472 78.92 48.224 79.688 48.208C79.864 48.208 79.992 48.208 80.072 48.208C80.152 48.208 80.232 48.216 80.312 48.232V51.688ZM85.3413 61.24C84.7173 61.24 84.1333 61.144 83.5893 60.952C83.0613 60.744 82.6053 60.464 82.2213 60.112C81.8373 59.744 81.5333 59.32 81.3093 58.84C81.0853 58.344 80.9733 57.808 80.9733 57.232C80.9733 56.608 81.1013 56.04 81.3573 55.528C81.6293 55.016 82.0053 54.576 82.4853 54.208C82.9653 53.84 83.5333 53.552 84.1893 53.344C84.8453 53.136 85.5733 53.032 86.3733 53.032C86.9013 53.032 87.4133 53.08 87.9093 53.176C88.4053 53.256 88.8373 53.384 89.2053 53.56V52.984C89.2053 51.528 88.3653 50.8 86.6853 50.8C85.9973 50.8 85.3413 50.92 84.7173 51.16C84.0933 51.384 83.4373 51.728 82.7493 52.192L81.6213 49.792C82.4533 49.248 83.3173 48.84 84.2133 48.568C85.1093 48.296 86.0613 48.16 87.0693 48.16C88.9733 48.16 90.4453 48.608 91.4853 49.504C92.5253 50.4 93.0453 51.712 93.0453 53.44V56.68C93.0453 57.064 93.1013 57.336 93.2133 57.496C93.3413 57.64 93.5573 57.728 93.8613 57.76V61C93.5253 61.08 93.2213 61.128 92.9493 61.144C92.6773 61.176 92.4293 61.192 92.2053 61.192C91.4853 61.192 90.9413 61.056 90.5733 60.784C90.2053 60.496 89.9733 60.096 89.8773 59.584L89.8053 59.008C89.2453 59.728 88.5733 60.28 87.7893 60.664C87.0213 61.048 86.2053 61.24 85.3413 61.24ZM86.4693 58.48C86.8853 58.48 87.2853 58.408 87.6693 58.264C88.0693 58.12 88.3973 57.928 88.6533 57.688C89.0213 57.4 89.2053 57.096 89.2053 56.776V55.576C88.8693 55.448 88.5013 55.352 88.1013 55.288C87.7173 55.208 87.3573 55.168 87.0213 55.168C86.3173 55.168 85.7333 55.328 85.2693 55.648C84.8213 55.968 84.5973 56.384 84.5973 56.896C84.5973 57.36 84.7733 57.744 85.1253 58.048C85.4773 58.336 85.9253 58.48 86.4693 58.48ZM107.972 61H104.132V53.92C104.132 53.088 103.972 52.488 103.652 52.12C103.348 51.736 102.94 51.544 102.428 51.544C102.156 51.544 101.884 51.6 101.612 51.712C101.34 51.824 101.076 51.984 100.82 52.192C100.564 52.384 100.332 52.616 100.124 52.888C99.9318 53.16 99.7798 53.456 99.6678 53.776V61H95.8278V48.4H99.2838V50.512C99.7478 49.76 100.404 49.184 101.252 48.784C102.1 48.368 103.076 48.16 104.18 48.16C104.996 48.16 105.652 48.312 106.148 48.616C106.644 48.904 107.028 49.288 107.3 49.768C107.572 50.232 107.748 50.744 107.828 51.304C107.924 51.864 107.972 52.408 107.972 52.936V61ZM115.755 61.24C114.891 61.24 114.091 61.08 113.355 60.76C112.635 60.424 112.011 59.96 111.483 59.368C110.955 58.776 110.539 58.088 110.235 57.304C109.947 56.504 109.803 55.632 109.803 54.688C109.803 53.776 109.939 52.92 110.211 52.12C110.483 51.32 110.867 50.632 111.363 50.056C111.859 49.464 112.443 49 113.115 48.664C113.803 48.328 114.555 48.16 115.371 48.16C116.251 48.16 117.043 48.368 117.747 48.784C118.467 49.2 119.019 49.76 119.403 50.464V43.48H123.243V56.68C123.243 57.064 123.299 57.336 123.411 57.496C123.539 57.64 123.755 57.728 124.059 57.76V61C123.707 61.08 123.403 61.128 123.147 61.144C122.891 61.176 122.651 61.192 122.427 61.192C121.755 61.192 121.211 61.056 120.795 60.784C120.379 60.496 120.139 60.088 120.075 59.56L120.003 58.912C119.555 59.696 118.947 60.28 118.179 60.664C117.427 61.048 116.619 61.24 115.755 61.24ZM116.787 58C117.315 58 117.819 57.848 118.299 57.544C118.795 57.224 119.171 56.792 119.427 56.248V53.608C119.187 52.968 118.795 52.448 118.251 52.048C117.723 51.632 117.171 51.424 116.595 51.424C116.179 51.424 115.795 51.52 115.443 51.712C115.107 51.888 114.811 52.128 114.555 52.432C114.299 52.736 114.099 53.088 113.955 53.488C113.827 53.888 113.763 54.312 113.763 54.76C113.763 55.224 113.835 55.656 113.979 56.056C114.139 56.456 114.347 56.8 114.603 57.088C114.875 57.376 115.195 57.6 115.563 57.76C115.947 57.92 116.355 58 116.787 58ZM132.226 61.24C131.154 61.24 130.194 61.064 129.346 60.712C128.514 60.36 127.81 59.888 127.234 59.296C126.658 58.688 126.218 57.992 125.914 57.208C125.626 56.408 125.482 55.576 125.482 54.712C125.482 53.848 125.626 53.024 125.914 52.24C126.218 51.44 126.658 50.744 127.234 50.152C127.81 49.544 128.514 49.064 129.346 48.712C130.194 48.344 131.154 48.16 132.226 48.16C133.298 48.16 134.25 48.344 135.082 48.712C135.914 49.064 136.618 49.544 137.194 50.152C137.77 50.744 138.21 51.44 138.514 52.24C138.818 53.024 138.97 53.848 138.97 54.712C138.97 55.576 138.818 56.408 138.514 57.208C138.226 57.992 137.794 58.688 137.218 59.296C136.642 59.888 135.93 60.36 135.082 60.712C134.25 61.064 133.298 61.24 132.226 61.24ZM129.418 54.712C129.418 55.704 129.682 56.504 130.21 57.112C130.738 57.704 131.41 58 132.226 58C132.626 58 132.994 57.92 133.33 57.76C133.666 57.6 133.954 57.376 134.194 57.088C134.45 56.8 134.65 56.456 134.794 56.056C134.938 55.64 135.01 55.192 135.01 54.712C135.01 53.72 134.746 52.928 134.218 52.336C133.69 51.728 133.026 51.424 132.226 51.424C131.826 51.424 131.45 51.504 131.098 51.664C130.762 51.824 130.466 52.048 130.21 52.336C129.97 52.624 129.778 52.976 129.634 53.392C129.49 53.792 129.418 54.232 129.418 54.712ZM160.795 61H156.955V53.92C156.955 53.088 156.803 52.488 156.499 52.12C156.195 51.736 155.803 51.544 155.323 51.544C155.067 51.544 154.803 51.6 154.531 51.712C154.275 51.824 154.035 51.984 153.811 52.192C153.587 52.384 153.379 52.616 153.187 52.888C153.011 53.16 152.867 53.456 152.755 53.776V61H148.915V53.92C148.915 53.088 148.763 52.488 148.459 52.12C148.155 51.736 147.763 51.544 147.283 51.544C146.771 51.544 146.267 51.752 145.771 52.168C145.291 52.568 144.939 53.104 144.715 53.776V61H140.875V48.4H144.331V50.512C144.795 49.744 145.419 49.16 146.203 48.76C147.003 48.36 147.931 48.16 148.987 48.16C149.515 48.16 149.971 48.224 150.355 48.352C150.755 48.48 151.099 48.656 151.387 48.88C151.675 49.104 151.907 49.368 152.083 49.672C152.259 49.96 152.387 50.272 152.467 50.608C152.947 49.824 153.579 49.224 154.363 48.808C155.147 48.376 156.043 48.16 157.051 48.16C157.851 48.16 158.491 48.312 158.971 48.616C159.467 48.904 159.851 49.288 160.123 49.768C160.395 50.232 160.571 50.744 160.651 51.304C160.747 51.864 160.795 52.408 160.795 52.936V61Z" fill="#FFFAE4"/>
<defs>
<filter id="filter0_d" x="0" y="0" width="242.454" height="116.645" filterUnits="userSpaceOnUse" color-interpolation-filters="sRGB">
<feFlood flood-opacity="0" result="BackgroundImageFix"/>
<feColorMatrix in="SourceAlpha" type="matrix" values="0 0 0 0 0 0 0 0 0 0 0 0 0 0 0 0 0 0 127 0"/>
<feOffset dx="4" dy="4"/>
<feGaussianBlur stdDeviation="2"/>
<feColorMatrix type="matrix" values="0 0 0 0 0 0 0 0 0 0 0 0 0 0 0 0 0 0 0.25 0"/>
<feBlend mode="normal" in2="BackgroundImageFix" result="effect1_dropShadow"/>
<feBlend mode="normal" in="SourceGraphic" in2="effect1_dropShadow" result="shape"/>
</filter>
</defs>
</svg>
