<svg width="150" height="150" viewBox="0 0 150 150" fill="none" xmlns="http://www.w3.org/2000/svg">
<mask id="mask0" mask-type="alpha" maskUnits="userSpaceOnUse" x="0" y="0" width="150" height="150">
<rect width="150" height="150" fill="#C4C4C4"/>
</mask>
<g mask="url(#mask0)">
<path d="M-13.5889 -14.6223C-11.2488 -13.4911 -8.42282 -11.9139 -5.38333 -9.93808M-13.5889 -14.6223C-10.3565 -29.7588 2.90332 -33.2265 13.9583 -27.1909M-13.5889 -14.6223C-34.0596 -3.07018 -27.0414 9.174 -18.197 16.1815M-13.5889 -14.6223C-20.1534 -19.2969 -27.2648 -20.1115 -30 -19.9345M23.9222 30C25.696 25.9219 27.0419 22.0233 28.0106 18.3131M23.9222 30C23.6574 26.8797 22.9532 23.8638 21.9059 20.9692M23.9222 30C20.7974 27.8342 18.249 26.5044 15.7167 25.6173M-5.38333 -9.93808C-5.5787 -14.9205 -1.98388 -25.3465 13.9583 -27.1909M-5.38333 -9.93808C-3.49051 -8.70765 -1.51488 -7.32262 0.477788 -5.79443M-5.38333 -9.93808C-11.9721 -9.025 -23.759 -2.52276 -18.197 16.1815M13.9583 -27.1909C17.395 -25.3147 20.6186 -22.52 23.2616 -18.8721M0.477788 -5.79443C1.60035 -11.2161 7.72871 -21.4219 23.2616 -18.8721M0.477788 -5.79443C2.43584 -4.29278 4.41034 -2.65289 6.3389 -0.885618M0.477788 -5.79443C-6.36018 -4.4156 -18.2778 2.78277 -11.2444 20.5456M23.2616 -18.8721C24.9094 -16.5979 26.3315 -13.992 27.4389 -11.0702M6.3389 -0.885618C7.51112 -6.03908 13.3722 -15.2908 27.4389 -11.0702M6.3389 -0.885618C8.15537 0.778942 9.93108 2.55651 11.6139 4.43804M6.3389 -0.885618C0.477788 -0.20546 -10.0722 5.3674 -5.38333 22.2176M27.4389 -11.0702C28.2664 -8.88699 28.9182 -6.52739 29.3571 -3.998M11.6139 4.43804C12.1112 0.209445 16.3562 -7.39779 29.3571 -3.998M11.6139 4.43804C13.0613 6.05631 14.4399 7.75148 15.7167 9.51778M11.6139 4.43804C5.94816 5.48278 -4.2111 10.665 0.477788 23.0358M29.3571 -3.998C29.8137 -1.36721 30.04 1.44727 29.9942 4.43804M15.7167 9.51778C16.4434 6.13129 20.3162 0.374244 29.9942 4.43804M15.7167 9.51778C16.8971 11.1508 17.9904 12.8446 18.9704 14.5946M15.7167 9.51778C11.5979 9.79348 3.77541 13.001 5.43573 23.6253M29.9942 4.43804C29.9626 6.50099 29.8016 8.64782 29.4974 10.8761M18.9704 14.5946C19.4536 12.4697 22.2354 8.75122 29.4974 10.8761M18.9704 14.5946C19.2638 15.1186 19.5471 15.6476 19.8195 16.1815M29.4974 10.8761C29.1717 13.2627 28.6817 15.7427 28.0106 18.3131M21.5041 19.9068C21.5191 18.8443 22.8412 17.0382 28.0106 18.3131M21.5041 19.9068C21.6431 20.2591 21.7771 20.6132 21.9059 20.9692M21.5041 19.9068C21.0045 18.6404 20.4402 17.3982 19.8195 16.1815M21.9059 20.9692C19.4521 21.5889 14.7789 23.386 15.7167 25.6173M15.7167 25.6173C14.0084 25.0188 12.3074 24.6219 10.4417 24.3056M19.8195 16.1815C16.3028 15.3978 9.5039 15.9254 10.4417 24.3056M10.4417 24.3056C8.9148 24.0468 7.27759 23.8421 5.43573 23.6253M5.43573 23.6253C3.93577 23.4487 2.3001 23.2642 0.477788 23.0358M0.477788 23.0358C-1.28573 22.8149 -3.22405 22.5529 -5.38333 22.2176M-5.38333 22.2176C-5.76701 22.158 -6.15768 22.0961 -6.55558 22.0317C-7.5285 22.0317 -9.22818 21.5047 -11.2444 20.5456M-11.2444 20.5456C-13.3703 19.5343 -15.848 18.0426 -18.197 16.1815" stroke="#66CDB0" stroke-width="2"/>
<path d="M63.3777 13.5889C64.5089 11.2488 66.0861 8.42282 68.0619 5.38333M63.3777 13.5889C48.2412 10.3565 44.7735 -2.90332 50.8091 -13.9583M63.3777 13.5889C74.9298 34.0596 87.174 27.0414 94.1815 18.197M63.3777 13.5889C58.7031 20.1534 57.8885 27.2648 58.0655 30M108 -23.9222C103.922 -25.696 100.023 -27.0419 96.3131 -28.0106M108 -23.9222C104.88 -23.6574 101.864 -22.9532 98.9692 -21.9059M108 -23.9222C105.834 -20.7974 104.504 -18.249 103.617 -15.7167M68.0619 5.38333C63.0795 5.5787 52.6535 1.98388 50.8091 -13.9583M68.0619 5.38333C69.2923 3.49051 70.6774 1.51488 72.2056 -0.477788M68.0619 5.38333C68.975 11.9721 75.4772 23.759 94.1815 18.197M50.8091 -13.9583C52.6853 -17.395 55.48 -20.6186 59.1279 -23.2616M72.2056 -0.477788C66.7839 -1.60035 56.5781 -7.72871 59.1279 -23.2616M72.2056 -0.477788C73.7072 -2.43584 75.3471 -4.41034 77.1144 -6.3389M72.2056 -0.477788C73.5844 6.36018 80.7828 18.2778 98.5456 11.2444M59.1279 -23.2616C61.4021 -24.9094 64.008 -26.3315 66.9298 -27.4389M77.1144 -6.3389C71.9609 -7.51112 62.7092 -13.3722 66.9298 -27.4389M77.1144 -6.3389C78.7789 -8.15537 80.5565 -9.93108 82.438 -11.6139M77.1144 -6.3389C77.7945 -0.477788 83.3674 10.0722 100.218 5.38333M66.9298 -27.4389C69.113 -28.2664 71.4726 -28.9182 74.002 -29.3571M82.438 -11.6139C78.2094 -12.1112 70.6022 -16.3562 74.002 -29.3571M82.438 -11.6139C84.0563 -13.0613 85.7515 -14.4399 87.5178 -15.7167M82.438 -11.6139C83.4828 -5.94816 88.665 4.2111 101.036 -0.477787M74.002 -29.3571C76.6328 -29.8137 79.4473 -30.04 82.438 -29.9942M87.5178 -15.7167C84.1313 -16.4434 78.3742 -20.3162 82.438 -29.9942M87.5178 -15.7167C89.1508 -16.8971 90.8446 -17.9904 92.5946 -18.9704M87.5178 -15.7167C87.7935 -11.5979 91.001 -3.77541 101.625 -5.43573M82.438 -29.9942C84.501 -29.9626 86.6478 -29.8016 88.8761 -29.4974M92.5946 -18.9704C90.4697 -19.4536 86.7512 -22.2354 88.8761 -29.4974M92.5946 -18.9704C93.1186 -19.2638 93.6476 -19.5471 94.1815 -19.8195M88.8761 -29.4974C91.2627 -29.1717 93.7427 -28.6817 96.3131 -28.0106M97.9068 -21.5041C96.8443 -21.5191 95.0382 -22.8412 96.3131 -28.0106M97.9068 -21.5041C98.2591 -21.6431 98.6132 -21.7771 98.9692 -21.9059M97.9068 -21.5041C96.6404 -21.0045 95.3982 -20.4402 94.1815 -19.8195M98.9692 -21.9059C99.5889 -19.4521 101.386 -14.7789 103.617 -15.7167M103.617 -15.7167C103.019 -14.0084 102.622 -12.3074 102.306 -10.4417M94.1815 -19.8195C93.3978 -16.3028 93.9254 -9.5039 102.306 -10.4417M102.306 -10.4417C102.047 -8.9148 101.842 -7.27759 101.625 -5.43573M101.625 -5.43573C101.449 -3.93577 101.264 -2.3001 101.036 -0.477787M101.036 -0.477787C100.815 1.28574 100.553 3.22405 100.218 5.38333M100.218 5.38333C100.158 5.76701 100.096 6.15768 100.032 6.55558C100.032 7.5285 99.5047 9.22818 98.5456 11.2444M98.5456 11.2444C97.5343 13.3703 96.0426 15.848 94.1815 18.197" stroke="#66CDB0" stroke-width="2"/>
<path d="M63.3777 163.589C64.5089 161.249 66.0861 158.423 68.0619 155.383M63.3777 163.589C48.2412 160.357 44.7735 147.097 50.8091 136.042M63.3777 163.589C74.9298 184.06 87.174 177.041 94.1815 168.197M63.3777 163.589C58.7031 170.153 57.8885 177.265 58.0655 180M108 126.078C103.922 124.304 100.023 122.958 96.3131 121.989M108 126.078C104.88 126.343 101.864 127.047 98.9692 128.094M108 126.078C105.834 129.203 104.504 131.751 103.617 134.283M68.0619 155.383C63.0795 155.579 52.6535 151.984 50.8091 136.042M68.0619 155.383C69.2923 153.491 70.6774 151.515 72.2056 149.522M68.0619 155.383C68.975 161.972 75.4772 173.759 94.1815 168.197M50.8091 136.042C52.6853 132.605 55.48 129.381 59.1279 126.738M72.2056 149.522C66.7839 148.4 56.5781 142.271 59.1279 126.738M72.2056 149.522C73.7072 147.564 75.3471 145.59 77.1144 143.661M72.2056 149.522C73.5844 156.36 80.7828 168.278 98.5456 161.244M59.1279 126.738C61.4021 125.091 64.008 123.669 66.9298 122.561M77.1144 143.661C71.9609 142.489 62.7092 136.628 66.9298 122.561M77.1144 143.661C78.7789 141.845 80.5565 140.069 82.438 138.386M77.1144 143.661C77.7945 149.522 83.3674 160.072 100.218 155.383M66.9298 122.561C69.113 121.734 71.4726 121.082 74.002 120.643M82.438 138.386C78.2094 137.889 70.6022 133.644 74.002 120.643M82.438 138.386C84.0563 136.939 85.7515 135.56 87.5178 134.283M82.438 138.386C83.4828 144.052 88.665 154.211 101.036 149.522M74.002 120.643C76.6328 120.186 79.4473 119.96 82.438 120.006M87.5178 134.283C84.1313 133.557 78.3742 129.684 82.438 120.006M87.5178 134.283C89.1508 133.103 90.8446 132.01 92.5946 131.03M87.5178 134.283C87.7935 138.402 91.001 146.225 101.625 144.564M82.438 120.006C84.501 120.037 86.6478 120.198 88.8761 120.503M92.5946 131.03C90.4697 130.546 86.7512 127.765 88.8761 120.503M92.5946 131.03C93.1186 130.736 93.6476 130.453 94.1815 130.181M88.8761 120.503C91.2627 120.828 93.7427 121.318 96.3131 121.989M97.9068 128.496C96.8443 128.481 95.0382 127.159 96.3131 121.989M97.9068 128.496C98.2591 128.357 98.6132 128.223 98.9692 128.094M97.9068 128.496C96.6404 128.995 95.3982 129.56 94.1815 130.181M98.9692 128.094C99.5889 130.548 101.386 135.221 103.617 134.283M103.617 134.283C103.019 135.992 102.622 137.693 102.306 139.558M94.1815 130.181C93.3978 133.697 93.9254 140.496 102.306 139.558M102.306 139.558C102.047 141.085 101.842 142.722 101.625 144.564M101.625 144.564C101.449 146.064 101.264 147.7 101.036 149.522M101.036 149.522C100.815 151.286 100.553 153.224 100.218 155.383M100.218 155.383C100.158 155.767 100.096 156.158 100.032 156.556C100.032 157.529 99.5047 159.228 98.5456 161.244M98.5456 161.244C97.5343 163.37 96.0426 165.848 94.1815 168.197" stroke="#66CDB0" stroke-width="2"/>
<path d="M59.5889 85.6223C57.2488 84.4911 54.4228 82.9139 51.3833 80.9381M59.5889 85.6223C56.3565 100.759 43.0967 104.226 32.0417 98.1909M59.5889 85.6223C80.0596 74.0702 73.0414 61.826 64.197 54.8185M59.5889 85.6223C66.1534 90.2969 73.2648 91.1115 76 90.9345M22.0778 41C20.304 45.0781 18.9581 48.9767 17.9894 52.6869M22.0778 41C22.3426 44.1203 23.0469 47.1362 24.0941 50.0308M22.0778 41C25.2026 43.1658 27.751 44.4956 30.2833 45.3827M51.3833 80.9381C51.5787 85.9205 47.9839 96.3465 32.0417 98.1909M51.3833 80.9381C49.4905 79.7077 47.5149 78.3226 45.5222 76.7944M51.3833 80.9381C57.9721 80.025 69.759 73.5228 64.197 54.8185M32.0417 98.1909C28.605 96.3147 25.3814 93.52 22.7384 89.8721M45.5222 76.7944C44.3997 82.2161 38.2713 92.4219 22.7384 89.8721M45.5222 76.7944C43.5642 75.2928 41.5897 73.6529 39.6611 71.8856M45.5222 76.7944C52.3602 75.4156 64.2778 68.2172 57.2444 50.4544M22.7384 89.8721C21.0906 87.5979 19.6685 84.992 18.5611 82.0702M39.6611 71.8856C38.4889 77.0391 32.6278 86.2908 18.5611 82.0702M39.6611 71.8856C37.8446 70.2211 36.0689 68.4435 34.3861 66.562M39.6611 71.8856C45.5222 71.2055 56.0722 65.6326 51.3833 48.7824M18.5611 82.0702C17.7336 79.887 17.0818 77.5274 16.6429 74.998M34.3861 66.562C33.8888 70.7906 29.6438 78.3978 16.6429 74.998M34.3861 66.562C32.9387 64.9437 31.5601 63.2485 30.2833 61.4822M34.3861 66.562C40.0518 65.5172 50.2111 60.335 45.5222 47.9642M16.6429 74.998C16.1863 72.3672 15.96 69.5527 16.0058 66.562M30.2833 61.4822C29.5566 64.8687 25.6838 70.6258 16.0058 66.562M30.2833 61.4822C29.1029 59.8492 28.0096 58.1554 27.0296 56.4054M30.2833 61.4822C34.4021 61.2065 42.2246 57.999 40.5643 47.3747M16.0058 66.562C16.0374 64.499 16.1984 62.3522 16.5026 60.1239M27.0296 56.4054C26.5465 58.5303 23.7646 62.2488 16.5026 60.1239M27.0296 56.4054C26.7362 55.8814 26.4529 55.3524 26.1805 54.8185M16.5026 60.1239C16.8283 57.7373 17.3183 55.2573 17.9894 52.6869M24.4959 51.0932C24.4809 52.1556 23.1588 53.9618 17.9894 52.6869M24.4959 51.0932C24.3569 50.7409 24.2229 50.3868 24.0941 50.0308M24.4959 51.0932C24.9955 52.3596 25.5598 53.6018 26.1805 54.8185M24.0941 50.0308C26.5479 49.4111 31.2211 47.6139 30.2833 45.3827M30.2833 45.3827C31.9916 45.9812 33.6926 46.3781 35.5583 46.6944M26.1805 54.8185C29.6972 55.6022 36.4961 55.0746 35.5583 46.6944M35.5583 46.6944C37.0852 46.9532 38.7224 47.1579 40.5643 47.3747M40.5643 47.3747C42.0642 47.5513 43.6999 47.7358 45.5222 47.9642M45.5222 47.9642C47.2857 48.1851 49.2241 48.4471 51.3833 48.7824M51.3833 48.7824C51.767 48.842 52.1577 48.9039 52.5556 48.9683C53.5285 48.9683 55.2282 49.4952 57.2444 50.4544M57.2444 50.4544C59.3703 51.4657 61.848 52.9574 64.197 54.8185" stroke="#66CDB0" stroke-width="2"/>
<path d="M135.622 58.4111C134.491 60.7512 132.914 63.5772 130.938 66.6167M135.622 58.4111C150.759 61.6435 154.226 74.9033 148.191 85.9583M135.622 58.4111C124.07 37.9404 111.826 44.9586 104.818 53.803M135.622 58.4111C140.297 51.8466 141.112 44.7352 140.935 42M91 95.9222C95.0781 97.696 98.9767 99.0419 102.687 100.011M91 95.9222C94.1203 95.6574 97.1362 94.9531 100.031 93.9059M91 95.9222C93.1658 92.7974 94.4956 90.249 95.3827 87.7167M130.938 66.6167C135.921 66.4213 146.347 70.0161 148.191 85.9583M130.938 66.6167C129.708 68.5095 128.323 70.4851 126.794 72.4778M130.938 66.6167C130.025 60.0279 123.523 48.241 104.818 53.803M148.191 85.9583C146.315 89.395 143.52 92.6186 139.872 95.2616M126.794 72.4778C132.216 73.6004 142.422 79.7287 139.872 95.2616M126.794 72.4778C125.293 74.4358 123.653 76.4103 121.886 78.3389M126.794 72.4778C125.416 65.6398 118.217 53.7222 100.454 60.7556M139.872 95.2616C137.598 96.9094 134.992 98.3315 132.07 99.4389M121.886 78.3389C127.039 79.5111 136.291 85.3722 132.07 99.4389M121.886 78.3389C120.221 80.1554 118.443 81.9311 116.562 83.6139M121.886 78.3389C121.205 72.4778 115.633 61.9278 98.7824 66.6167M132.07 99.4389C129.887 100.266 127.527 100.918 124.998 101.357M116.562 83.6139C120.791 84.1112 128.398 88.3562 124.998 101.357M116.562 83.6139C114.944 85.0613 113.249 86.4399 111.482 87.7167M116.562 83.6139C115.517 77.9482 110.335 67.7889 97.9642 72.4778M124.998 101.357C122.367 101.814 119.553 102.04 116.562 101.994M111.482 87.7167C114.869 88.4434 120.626 92.3162 116.562 101.994M111.482 87.7167C109.849 88.8971 108.155 89.9904 106.405 90.9704M111.482 87.7167C111.207 83.5979 107.999 75.7754 97.3747 77.4357M116.562 101.994C114.499 101.963 112.352 101.802 110.124 101.497M106.405 90.9704C108.53 91.4536 112.249 94.2354 110.124 101.497M106.405 90.9704C105.881 91.2638 105.352 91.5471 104.818 91.8195M110.124 101.497C107.737 101.172 105.257 100.682 102.687 100.011M101.093 93.5041C102.156 93.5191 103.962 94.8412 102.687 100.011M101.093 93.5041C100.741 93.6431 100.387 93.7771 100.031 93.9059M101.093 93.5041C102.36 93.0045 103.602 92.4402 104.818 91.8195M100.031 93.9059C99.4111 91.4521 97.614 86.7789 95.3827 87.7167M95.3827 87.7167C95.9812 86.0084 96.3781 84.3074 96.6944 82.4417M104.818 91.8195C105.602 88.3028 105.075 81.5039 96.6944 82.4417M96.6944 82.4417C96.9532 80.9148 97.1579 79.2776 97.3747 77.4357M97.3747 77.4357C97.5513 75.9358 97.7358 74.3001 97.9642 72.4778M97.9642 72.4778C98.1851 70.7143 98.4471 68.7759 98.7824 66.6167M98.7824 66.6167C98.842 66.233 98.9039 65.8423 98.9683 65.4444C98.9683 64.4715 99.4952 62.7718 100.454 60.7556M100.454 60.7556C101.466 58.6297 102.957 56.152 104.818 53.803" stroke="#66CDB0" stroke-width="2"/>
<path d="M-14.3777 58.4111C-15.5089 60.7512 -17.0861 63.5772 -19.0619 66.6167M-14.3777 58.4111C0.75882 61.6435 4.22646 74.9033 -1.80907 85.9583M-14.3777 58.4111C-25.9298 37.9404 -38.174 44.9586 -45.1815 53.803M-14.3777 58.4111C-9.7031 51.8466 -8.88846 44.7352 -9.06547 42M-59 95.9222C-54.9219 97.696 -51.0233 99.0419 -47.3131 100.011M-59 95.9222C-55.8797 95.6574 -52.8638 94.9531 -49.9692 93.9059M-59 95.9222C-56.8342 92.7974 -55.5044 90.249 -54.6173 87.7167M-19.0619 66.6167C-14.0795 66.4213 -3.65347 70.0161 -1.80907 85.9583M-19.0619 66.6167C-20.2923 68.5095 -21.6774 70.4851 -23.2056 72.4778M-19.0619 66.6167C-19.975 60.0279 -26.4772 48.241 -45.1815 53.803M-1.80907 85.9583C-3.68532 89.395 -6.47996 92.6186 -10.1279 95.2616M-23.2056 72.4778C-17.7839 73.6004 -7.57807 79.7287 -10.1279 95.2616M-23.2056 72.4778C-24.7072 74.4358 -26.3471 76.4103 -28.1144 78.3389M-23.2056 72.4778C-24.5844 65.6398 -31.7828 53.7222 -49.5456 60.7556M-10.1279 95.2616C-12.4021 96.9094 -15.008 98.3315 -17.9298 99.4389M-28.1144 78.3389C-22.9609 79.5111 -13.7092 85.3722 -17.9298 99.4389M-28.1144 78.3389C-29.7789 80.1554 -31.5565 81.9311 -33.438 83.6139M-28.1144 78.3389C-28.7945 72.4778 -34.3674 61.9278 -51.2176 66.6167M-17.9298 99.4389C-20.113 100.266 -22.4726 100.918 -25.002 101.357M-33.438 83.6139C-29.2094 84.1112 -21.6022 88.3562 -25.002 101.357M-33.438 83.6139C-35.0563 85.0613 -36.7515 86.4399 -38.5178 87.7167M-33.438 83.6139C-34.4828 77.9482 -39.665 67.7889 -52.0358 72.4778M-25.002 101.357C-27.6328 101.814 -30.4473 102.04 -33.438 101.994M-38.5178 87.7167C-35.1313 88.4434 -29.3742 92.3162 -33.438 101.994M-38.5178 87.7167C-40.1508 88.8971 -41.8446 89.9904 -43.5946 90.9704M-38.5178 87.7167C-38.7935 83.5979 -42.001 75.7754 -52.6253 77.4357M-33.438 101.994C-35.501 101.963 -37.6478 101.802 -39.8761 101.497M-43.5946 90.9704C-41.4697 91.4536 -37.7512 94.2354 -39.8761 101.497M-43.5946 90.9704C-44.1186 91.2638 -44.6476 91.5471 -45.1815 91.8195M-39.8761 101.497C-42.2627 101.172 -44.7427 100.682 -47.3131 100.011M-48.9068 93.5041C-47.8444 93.5191 -46.0382 94.8412 -47.3131 100.011M-48.9068 93.5041C-49.2591 93.6431 -49.6132 93.7771 -49.9692 93.9059M-48.9068 93.5041C-47.6404 93.0045 -46.3982 92.4402 -45.1815 91.8195M-49.9692 93.9059C-50.5889 91.4521 -52.386 86.7789 -54.6173 87.7167M-54.6173 87.7167C-54.0188 86.0084 -53.6219 84.3074 -53.3056 82.4417M-45.1815 91.8195C-44.3978 88.3028 -44.9254 81.5039 -53.3056 82.4417M-53.3056 82.4417C-53.0468 80.9148 -52.8421 79.2776 -52.6253 77.4357M-52.6253 77.4357C-52.4487 75.9358 -52.2642 74.3001 -52.0358 72.4778M-52.0358 72.4778C-51.8149 70.7143 -51.5529 68.7759 -51.2176 66.6167M-51.2176 66.6167C-51.158 66.233 -51.0961 65.8423 -51.0317 65.4444C-51.0317 64.4715 -50.5048 62.7718 -49.5456 60.7556M-49.5456 60.7556C-48.5343 58.6297 -47.0426 56.152 -45.1815 53.803" stroke="#66CDB0" stroke-width="2"/>
<path d="M136.411 -14.6223C138.751 -13.4911 141.577 -11.9139 144.617 -9.93808M136.411 -14.6223C139.643 -29.7588 152.903 -33.2265 163.958 -27.1909M136.411 -14.6223C115.94 -3.07018 122.959 9.174 131.803 16.1815M136.411 -14.6223C129.847 -19.2969 122.735 -20.1115 120 -19.9345M173.922 30C175.696 25.9219 177.042 22.0233 178.011 18.3131M173.922 30C173.657 26.8797 172.953 23.8638 171.906 20.9692M173.922 30C170.797 27.8342 168.249 26.5044 165.717 25.6173M144.617 -9.93808C144.421 -14.9205 148.016 -25.3465 163.958 -27.1909M144.617 -9.93808C146.509 -8.70765 148.485 -7.32262 150.478 -5.79443M144.617 -9.93808C138.028 -9.025 126.241 -2.52276 131.803 16.1815M163.958 -27.1909C167.395 -25.3147 170.619 -22.52 173.262 -18.8721M150.478 -5.79443C151.6 -11.2161 157.729 -21.4219 173.262 -18.8721M150.478 -5.79443C152.436 -4.29278 154.41 -2.65289 156.339 -0.885618M150.478 -5.79443C143.64 -4.4156 131.722 2.78277 138.756 20.5456M173.262 -18.8721C174.909 -16.5979 176.331 -13.992 177.439 -11.0702M156.339 -0.885618C157.511 -6.03908 163.372 -15.2908 177.439 -11.0702M156.339 -0.885618C158.155 0.778942 159.931 2.55651 161.614 4.43804M156.339 -0.885618C150.478 -0.20546 139.928 5.3674 144.617 22.2176M177.439 -11.0702C178.266 -8.88699 178.918 -6.52739 179.357 -3.998M161.614 4.43804C162.111 0.209445 166.356 -7.39779 179.357 -3.998M161.614 4.43804C163.061 6.05631 164.44 7.75148 165.717 9.51778M161.614 4.43804C155.948 5.48278 145.789 10.665 150.478 23.0358M179.357 -3.998C179.814 -1.36721 180.04 1.44727 179.994 4.43804M165.717 9.51778C166.443 6.13129 170.316 0.374244 179.994 4.43804M165.717 9.51778C166.897 11.1508 167.99 12.8446 168.97 14.5946M165.717 9.51778C161.598 9.79348 153.775 13.001 155.436 23.6253M179.994 4.43804C179.963 6.50099 179.802 8.64782 179.497 10.8761M168.97 14.5946C169.454 12.4697 172.235 8.75122 179.497 10.8761M168.97 14.5946C169.264 15.1186 169.547 15.6476 169.819 16.1815M179.497 10.8761C179.172 13.2627 178.682 15.7427 178.011 18.3131M171.504 19.9068C171.519 18.8443 172.841 17.0382 178.011 18.3131M171.504 19.9068C171.643 20.2591 171.777 20.6132 171.906 20.9692M171.504 19.9068C171.005 18.6404 170.44 17.3982 169.819 16.1815M171.906 20.9692C169.452 21.5889 164.779 23.386 165.717 25.6173M165.717 25.6173C164.008 25.0188 162.307 24.6219 160.442 24.3056M169.819 16.1815C166.303 15.3978 159.504 15.9254 160.442 24.3056M160.442 24.3056C158.915 24.0468 157.278 23.8421 155.436 23.6253M155.436 23.6253C153.936 23.4487 152.3 23.2642 150.478 23.0358M150.478 23.0358C148.714 22.8149 146.776 22.5529 144.617 22.2176M144.617 22.2176C144.233 22.158 143.842 22.0961 143.444 22.0317C142.472 22.0317 140.772 21.5047 138.756 20.5456M138.756 20.5456C136.63 19.5343 134.152 18.0426 131.803 16.1815" stroke="#66CDB0" stroke-width="2"/>
<path d="M136.411 135.378C138.751 136.509 141.577 138.086 144.617 140.062M136.411 135.378C139.643 120.241 152.903 116.774 163.958 122.809M136.411 135.378C115.94 146.93 122.959 159.174 131.803 166.182M136.411 135.378C129.847 130.703 122.735 129.888 120 130.065M173.922 180C175.696 175.922 177.042 172.023 178.011 168.313M173.922 180C173.657 176.88 172.953 173.864 171.906 170.969M173.922 180C170.797 177.834 168.249 176.504 165.717 175.617M144.617 140.062C144.421 135.079 148.016 124.653 163.958 122.809M144.617 140.062C146.509 141.292 148.485 142.677 150.478 144.206M144.617 140.062C138.028 140.975 126.241 147.477 131.803 166.182M163.958 122.809C167.395 124.685 170.619 127.48 173.262 131.128M150.478 144.206C151.6 138.784 157.729 128.578 173.262 131.128M150.478 144.206C152.436 145.707 154.41 147.347 156.339 149.114M150.478 144.206C143.64 145.584 131.722 152.783 138.756 170.546M173.262 131.128C174.909 133.402 176.331 136.008 177.439 138.93M156.339 149.114C157.511 143.961 163.372 134.709 177.439 138.93M156.339 149.114C158.155 150.779 159.931 152.557 161.614 154.438M156.339 149.114C150.478 149.795 139.928 155.367 144.617 172.218M177.439 138.93C178.266 141.113 178.918 143.473 179.357 146.002M161.614 154.438C162.111 150.209 166.356 142.602 179.357 146.002M161.614 154.438C163.061 156.056 164.44 157.751 165.717 159.518M161.614 154.438C155.948 155.483 145.789 160.665 150.478 173.036M179.357 146.002C179.814 148.633 180.04 151.447 179.994 154.438M165.717 159.518C166.443 156.131 170.316 150.374 179.994 154.438M165.717 159.518C166.897 161.151 167.99 162.845 168.97 164.595M165.717 159.518C161.598 159.793 153.775 163.001 155.436 173.625M179.994 154.438C179.963 156.501 179.802 158.648 179.497 160.876M168.97 164.595C169.454 162.47 172.235 158.751 179.497 160.876M168.97 164.595C169.264 165.119 169.547 165.648 169.819 166.182M179.497 160.876C179.172 163.263 178.682 165.743 178.011 168.313M171.504 169.907C171.519 168.844 172.841 167.038 178.011 168.313M171.504 169.907C171.643 170.259 171.777 170.613 171.906 170.969M171.504 169.907C171.005 168.64 170.44 167.398 169.819 166.182M171.906 170.969C169.452 171.589 164.779 173.386 165.717 175.617M165.717 175.617C164.008 175.019 162.307 174.622 160.442 174.306M169.819 166.182C166.303 165.398 159.504 165.925 160.442 174.306M160.442 174.306C158.915 174.047 157.278 173.842 155.436 173.625M155.436 173.625C153.936 173.449 152.3 173.264 150.478 173.036M150.478 173.036C148.714 172.815 146.776 172.553 144.617 172.218M144.617 172.218C144.233 172.158 143.842 172.096 143.444 172.032C142.472 172.032 140.772 171.505 138.756 170.546M138.756 170.546C136.63 169.534 134.152 168.043 131.803 166.182" stroke="#66CDB0" stroke-width="2"/>
<path d="M-13.5889 135.378C-11.2488 136.509 -8.42282 138.086 -5.38333 140.062M-13.5889 135.378C-10.3565 120.241 2.90332 116.774 13.9583 122.809M-13.5889 135.378C-34.0596 146.93 -27.0414 159.174 -18.197 166.182M-13.5889 135.378C-20.1534 130.703 -27.2648 129.888 -30 130.065M23.9222 180C25.696 175.922 27.0419 172.023 28.0106 168.313M23.9222 180C23.6574 176.88 22.9532 173.864 21.9059 170.969M23.9222 180C20.7974 177.834 18.249 176.504 15.7167 175.617M-5.38333 140.062C-5.5787 135.079 -1.98388 124.653 13.9583 122.809M-5.38333 140.062C-3.49051 141.292 -1.51488 142.677 0.477788 144.206M-5.38333 140.062C-11.9721 140.975 -23.759 147.477 -18.197 166.182M13.9583 122.809C17.395 124.685 20.6186 127.48 23.2616 131.128M0.477788 144.206C1.60035 138.784 7.72871 128.578 23.2616 131.128M0.477788 144.206C2.43584 145.707 4.41034 147.347 6.3389 149.114M0.477788 144.206C-6.36018 145.584 -18.2778 152.783 -11.2444 170.546M23.2616 131.128C24.9094 133.402 26.3315 136.008 27.4389 138.93M6.3389 149.114C7.51112 143.961 13.3722 134.709 27.4389 138.93M6.3389 149.114C8.15537 150.779 9.93108 152.557 11.6139 154.438M6.3389 149.114C0.477788 149.795 -10.0722 155.367 -5.38333 172.218M27.4389 138.93C28.2664 141.113 28.9182 143.473 29.3571 146.002M11.6139 154.438C12.1112 150.209 16.3562 142.602 29.3571 146.002M11.6139 154.438C13.0613 156.056 14.4399 157.751 15.7167 159.518M11.6139 154.438C5.94816 155.483 -4.2111 160.665 0.477788 173.036M29.3571 146.002C29.8137 148.633 30.04 151.447 29.9942 154.438M15.7167 159.518C16.4434 156.131 20.3162 150.374 29.9942 154.438M15.7167 159.518C16.8971 161.151 17.9904 162.845 18.9704 164.595M15.7167 159.518C11.5979 159.793 3.77541 163.001 5.43573 173.625M29.9942 154.438C29.9626 156.501 29.8016 158.648 29.4974 160.876M18.9704 164.595C19.4536 162.47 22.2354 158.751 29.4974 160.876M18.9704 164.595C19.2638 165.119 19.5471 165.648 19.8195 166.182M29.4974 160.876C29.1717 163.263 28.6817 165.743 28.0106 168.313M21.5041 169.907C21.5191 168.844 22.8412 167.038 28.0106 168.313M21.5041 169.907C21.6431 170.259 21.7771 170.613 21.9059 170.969M21.5041 169.907C21.0045 168.64 20.4402 167.398 19.8195 166.182M21.9059 170.969C19.4521 171.589 14.7789 173.386 15.7167 175.617M15.7167 175.617C14.0084 175.019 12.3074 174.622 10.4417 174.306M19.8195 166.182C16.3028 165.398 9.5039 165.925 10.4417 174.306M10.4417 174.306C8.9148 174.047 7.27759 173.842 5.43573 173.625M5.43573 173.625C3.93577 173.449 2.3001 173.264 0.477788 173.036M0.477788 173.036C-1.28573 172.815 -3.22405 172.553 -5.38333 172.218M-5.38333 172.218C-5.76701 172.158 -6.15768 172.096 -6.55558 172.032C-7.5285 172.032 -9.22818 171.505 -11.2444 170.546M-11.2444 170.546C-13.3703 169.534 -15.848 168.043 -18.197 166.182" stroke="#66CDB0" stroke-width="2"/>
</g>
</svg>
